<svg width="25" height="24" viewBox="0 0 25 24" fill="none" xmlns="http://www.w3.org/2000/svg">
<path d="M2.507 2.94151C2.7425 2.04301 3.5615 1.50001 4.4225 1.50001C4.9535 1.50001 5.4365 1.69951 5.804 2.02501C6.20918 1.68513 6.72114 1.49884 7.25 1.49884C7.77886 1.49884 8.29082 1.68513 8.696 2.02501C9.07621 1.68598 9.56809 1.49906 10.0775 1.50001C10.9385 1.50001 11.7575 2.04301 11.993 2.94151C12.218 3.79951 12.5 5.18251 12.5 6.75001C12.5 7.62535 12.2811 8.48678 11.8632 9.25594C11.4454 10.0251 10.8418 10.6776 10.1075 11.154C9.701 11.4195 9.5 11.7615 9.5 12.054V12.648C9.5 12.682 9.502 12.715 9.506 12.747C9.557 13.119 9.7415 14.5005 9.914 15.933C10.0835 17.3385 10.25 18.8715 10.25 19.5C10.25 20.2957 9.93393 21.0587 9.37132 21.6213C8.80871 22.1839 8.04565 22.5 7.25 22.5C6.45435 22.5 5.69129 22.1839 5.12868 21.6213C4.56607 21.0587 4.25 20.2957 4.25 19.5C4.25 18.87 4.4165 17.34 4.586 15.933C4.7585 14.5005 4.943 13.119 4.994 12.747L5 12.648V12.054C5 11.7615 4.799 11.4195 4.3925 11.154C3.65818 10.6776 3.05464 10.0251 2.63679 9.25594C2.21894 8.48678 2.00004 7.62535 2 6.75001C2 5.18251 2.282 3.79951 2.507 2.94151ZM9.5 7.50001C9.5 7.69892 9.42098 7.88969 9.28033 8.03034C9.13968 8.17099 8.94891 8.25001 8.75 8.25001C8.55109 8.25001 8.36032 8.17099 8.21967 8.03034C8.07902 7.88969 8 7.69892 8 7.50001V3.75001C8 3.5511 7.92098 3.36033 7.78033 3.21968C7.63968 3.07903 7.44891 3.00001 7.25 3.00001C7.05109 3.00001 6.86032 3.07903 6.71967 3.21968C6.57902 3.36033 6.5 3.5511 6.5 3.75001V7.50001C6.5 7.69892 6.42098 7.88969 6.28033 8.03034C6.13968 8.17099 5.94891 8.25001 5.75 8.25001C5.55109 8.25001 5.36032 8.17099 5.21967 8.03034C5.07902 7.88969 5 7.69892 5 7.50001V3.57751C5 3.42435 4.93916 3.27746 4.83085 3.16916C4.72255 3.06086 4.57566 3.00001 4.4225 3.00001C4.1735 3.00001 4.0025 3.14851 3.9575 3.32251C3.6619 4.44131 3.50819 5.59285 3.5 6.75001C3.49993 7.37557 3.65635 7.9912 3.95501 8.54085C4.25368 9.09051 4.68511 9.55671 5.21 9.89701C5.8685 10.3245 6.5 11.076 6.5 12.054V12.648C6.5 12.748 6.4935 12.848 6.4805 12.948C6.4295 13.317 6.2465 14.6895 6.0755 16.113C5.9015 17.5605 5.75 18.984 5.75 19.5C5.75 19.8978 5.90804 20.2794 6.18934 20.5607C6.47064 20.842 6.85218 21 7.25 21C7.64782 21 8.02936 20.842 8.31066 20.5607C8.59196 20.2794 8.75 19.8978 8.75 19.5C8.75 18.984 8.6 17.5605 8.4245 16.1115C8.2535 14.6895 8.0705 13.317 8.0195 12.9465C8.00809 12.8479 8.00158 12.7488 8 12.6495V12.0555C8 11.0775 8.6315 10.326 9.29 9.89851C9.81511 9.55807 10.2467 9.09163 10.5453 8.54169C10.844 7.99176 11.0003 7.37582 11 6.75001C11 5.35201 10.748 4.10401 10.5425 3.32251C10.4975 3.15001 10.325 3.00001 10.0775 3.00001C9.92434 3.00001 9.77745 3.06086 9.66915 3.16916C9.56084 3.27746 9.5 3.42435 9.5 3.57751V7.50001ZM14 8.25001C14 6.4598 14.7112 4.74291 15.977 3.47704C17.2429 2.21117 18.9598 1.50001 20.75 1.50001C20.9489 1.50001 21.1397 1.57903 21.2803 1.71968C21.421 1.86033 21.5 2.0511 21.5 2.25001V11.2095L21.5285 11.475C21.6478 12.5945 21.7623 13.7145 21.872 14.835C22.0565 16.719 22.25 18.831 22.25 19.5C22.25 20.2957 21.9339 21.0587 21.3713 21.6213C20.8087 22.1839 20.0456 22.5 19.25 22.5C18.4544 22.5 17.6913 22.1839 17.1287 21.6213C16.5661 21.0587 16.25 20.2957 16.25 19.5C16.25 18.831 16.4435 16.719 16.628 14.835C16.7225 13.8795 16.817 12.9645 16.8875 12.2865L16.9175 12H15.5C15.1022 12 14.7206 11.842 14.4393 11.5607C14.158 11.2794 14 10.8978 14 10.5V8.25001ZM18.4955 11.3295L18.464 11.6325C18.3468 12.7487 18.2328 13.8652 18.122 14.982C17.9315 16.9125 17.75 18.927 17.75 19.5C17.75 19.8978 17.908 20.2794 18.1893 20.5607C18.4706 20.842 18.8522 21 19.25 21C19.6478 21 20.0294 20.842 20.3107 20.5607C20.592 20.2794 20.75 19.8978 20.75 19.5C20.75 18.9255 20.5685 16.9125 20.378 14.982C20.268 13.8651 20.154 12.7486 20.036 11.6325L20.0045 11.331L20 11.25V3.05251C18.7503 3.23289 17.6074 3.85764 16.7809 4.81224C15.9544 5.76684 15.4997 6.98734 15.5 8.25001V10.5H17.75C17.8552 10.5001 17.9592 10.5222 18.0552 10.565C18.1513 10.6079 18.2372 10.6705 18.3075 10.7487C18.3779 10.8269 18.4309 10.919 18.4633 11.0191C18.4957 11.1192 18.5066 11.2249 18.4955 11.3295Z" fill="black"/>
</svg>
