<svg width="25" height="24" viewBox="0 0 25 24" fill="none" xmlns="http://www.w3.org/2000/svg">
<path d="M17.75 2.25C17.75 1.85218 17.908 1.47064 18.1893 1.18934C18.4706 0.908035 18.8522 0.75 19.25 0.75H22.25C22.6478 0.75 23.0294 0.908035 23.3107 1.18934C23.592 1.47064 23.75 1.85218 23.75 2.25V6.75C23.75 7.14782 23.592 7.52936 23.3107 7.81066C23.0294 8.09196 22.6478 8.25 22.25 8.25H21.5V22.5C21.5 22.6989 21.421 22.8897 21.2803 23.0303C21.1397 23.171 20.9489 23.25 20.75 23.25C20.5511 23.25 20.3603 23.171 20.2197 23.0303C20.079 22.8897 20 22.6989 20 22.5V8.25H19.25C18.8522 8.25 18.4706 8.09196 18.1893 7.81066C17.908 7.52936 17.75 7.14782 17.75 6.75V2.25ZM16.625 2.25H8.30525C7.62267 2.24995 6.96048 2.48267 6.42801 2.90973C5.89554 3.3368 5.52462 3.93269 5.3765 4.599L4.898 6.75H4.25C4.05109 6.75 3.86032 6.82902 3.71967 6.96967C3.57902 7.11032 3.5 7.30109 3.5 7.5C3.5 7.69891 3.57902 7.88968 3.71967 8.03033C3.86032 8.17098 4.05109 8.25 4.25 8.25H4.565L4.3175 9.36375C3.84322 9.6215 3.44727 10.0024 3.17139 10.4664C2.89552 10.9304 2.74994 11.4602 2.75 12V19.5C2.75 20.0967 2.98705 20.669 3.40901 21.091C3.83097 21.5129 4.40326 21.75 5 21.75H5.75C6.34674 21.75 6.91903 21.5129 7.34099 21.091C7.76295 20.669 8 20.0967 8 19.5V18.75H17V19.5C16.9998 20.0318 17.1881 20.5466 17.5313 20.9528C17.8745 21.3591 18.3506 21.6306 18.875 21.7192V20.1495C18.761 20.0837 18.6663 19.989 18.6005 19.875C18.5347 19.761 18.5 19.6316 18.5 19.5V18.75H18.875V17.25H4.25V12C4.25 11.6022 4.40804 11.2206 4.68934 10.9393C4.97064 10.658 5.35218 10.5 5.75 10.5H18.875V9.34875C18.529 9.29878 18.1965 9.18021 17.897 9H5.9345L6.8405 4.9245C6.91455 4.59141 7.09995 4.29351 7.36611 4.07998C7.63227 3.86646 7.96327 3.75006 8.3045 3.75H16.625V2.25ZM4.25 19.5V18.75H6.5V19.5C6.5 19.6989 6.42098 19.8897 6.28033 20.0303C6.13968 20.171 5.94891 20.25 5.75 20.25H5C4.80109 20.25 4.61032 20.171 4.46967 20.0303C4.32902 19.8897 4.25 19.6989 4.25 19.5ZM9.875 15C9.875 14.8011 9.95402 14.6103 10.0947 14.4697C10.2353 14.329 10.4261 14.25 10.625 14.25H14.375C14.5739 14.25 14.7647 14.329 14.9053 14.4697C15.046 14.6103 15.125 14.8011 15.125 15C15.125 15.1989 15.046 15.3897 14.9053 15.5303C14.7647 15.671 14.5739 15.75 14.375 15.75H10.625C10.4261 15.75 10.2353 15.671 10.0947 15.5303C9.95402 15.3897 9.875 15.1989 9.875 15ZM7.625 14.25C7.92337 14.25 8.20952 14.1315 8.4205 13.9205C8.63147 13.7095 8.75 13.4234 8.75 13.125C8.75 12.8266 8.63147 12.5405 8.4205 12.3295C8.20952 12.1185 7.92337 12 7.625 12C7.32663 12 7.04048 12.1185 6.8295 12.3295C6.61853 12.5405 6.5 12.8266 6.5 13.125C6.5 13.4234 6.61853 13.7095 6.8295 13.9205C7.04048 14.1315 7.32663 14.25 7.625 14.25ZM18.5 13.125C18.5 13.4234 18.3815 13.7095 18.1705 13.9205C17.9595 14.1315 17.6734 14.25 17.375 14.25C17.0766 14.25 16.7905 14.1315 16.5795 13.9205C16.3685 13.7095 16.25 13.4234 16.25 13.125C16.25 12.8266 16.3685 12.5405 16.5795 12.3295C16.7905 12.1185 17.0766 12 17.375 12C17.6734 12 17.9595 12.1185 18.1705 12.3295C18.3815 12.5405 18.5 12.8266 18.5 13.125Z" fill="black"/>
</svg>
