<svg width="24" height="34" viewBox="0 0 24 34" fill="none" xmlns="http://www.w3.org/2000/svg">
<path d="M6.61731 25.1864C7.61232 26.4396 8.51797 27.7596 9.32772 29.1369C10.019 30.4322 10.3072 31.3106 10.8124 32.8714C11.1223 33.7337 11.4023 33.991 12.0044 33.991C12.6604 33.991 12.9581 33.5532 13.1881 32.8761C13.6656 31.4021 14.0403 30.2773 14.6315 29.2144C15.7916 27.1623 17.2331 25.3388 18.6495 23.5863C19.0329 23.0903 21.512 20.2007 22.6281 17.9206C22.6281 17.9206 23.9999 15.416 23.9999 11.9181C23.9999 8.64612 22.6471 6.37683 22.6471 6.37683L18.7522 7.40758L16.3869 13.5638L15.8017 14.4127L15.6847 14.5665L15.5291 14.759L15.2559 15.0665L14.8655 15.4521L12.7592 17.1479L7.49331 20.1525L6.61731 25.1864Z" fill="#34A853"/>
<path d="M1.18237 17.4995C2.46759 20.4004 4.94597 22.9505 6.62278 25.1884L15.5291 14.7629C15.5291 14.7629 14.2744 16.3845 11.9983 16.3845C9.46303 16.3845 7.41487 14.3839 7.41487 11.8612C7.41487 10.1313 8.46806 8.94287 8.46806 8.94287L2.42222 10.5437L1.18237 17.4995Z" fill="#FBBC04"/>
<path d="M15.6286 0.536133C18.5866 1.47859 21.1184 3.45717 22.6498 6.37478L15.5318 14.7569C15.5318 14.7569 16.585 13.547 16.585 11.8278C16.585 9.24643 14.3854 7.31797 12.0091 7.31797C9.762 7.31797 8.47144 8.93691 8.47144 8.93691V3.65626L15.6286 0.536133Z" fill="#4285F4"/>
<path d="M2.81396 4.23981C4.58068 2.15099 7.68943 0 11.9753 0C14.0547 0 15.6212 0.53946 15.6212 0.53946L8.46475 8.94154H3.39428L2.81396 4.23981Z" fill="#1A73E8"/>
<path d="M1.18238 17.4996C1.18238 17.4996 0 15.2115 0 11.8967C0 8.76381 1.23244 6.02529 2.81391 4.23987L8.46872 8.94234L1.18238 17.4996Z" fill="#EA4335"/>
</svg>
