<svg width="60" height="60" viewBox="0 0 60 60" fill="none" xmlns="http://www.w3.org/2000/svg">
<path d="M55.1512 25.9297C55.1004 25.6302 54.8164 25.4286 54.517 25.4795C54.5149 25.4798 54.5129 25.4802 54.5109 25.4805C54.2603 24.1803 53.9079 22.9162 53.4625 21.697C53.4644 21.6963 53.4663 21.6956 53.4682 21.6948C53.7511 21.5842 53.8908 21.2652 53.7802 20.9823C52.0938 16.6686 49.2588 12.9316 45.6517 10.1467C45.4112 9.9611 45.0658 10.0055 44.8802 10.246C44.879 10.2476 44.8777 10.2492 44.8765 10.2508C41.9737 8.1105 38.5868 6.58876 34.9105 5.88008C34.9108 5.87807 34.9112 5.87605 34.9115 5.87404C34.9623 5.57456 34.7608 5.29059 34.4613 5.23976C33.0742 5.00431 31.6489 4.88176 30.1955 4.88176C28.7421 4.88176 27.3168 5.00431 25.9297 5.23976C25.6302 5.29059 25.4286 5.57456 25.4795 5.87404C25.4798 5.87605 25.4802 5.87807 25.4805 5.88008C24.1803 6.13072 22.9162 6.48307 21.697 6.92852C21.6963 6.92661 21.6956 6.92469 21.6948 6.92278C21.5842 6.63987 21.2652 6.50019 20.9823 6.61079C16.6686 8.29715 12.9316 11.1322 10.1467 14.7393C9.9611 14.9798 10.0055 15.3252 10.246 15.5108C10.2476 15.512 10.2492 15.5133 10.2508 15.5145C8.1105 18.4173 6.58875 21.8042 5.88007 25.4805C5.87806 25.4802 5.87605 25.4798 5.87403 25.4795C5.57456 25.4286 5.29058 25.6302 5.23975 25.9297C5.00431 27.3168 4.88176 28.7421 4.88176 30.1955C4.88176 31.6489 5.00431 33.0742 5.23975 34.4613C5.29058 34.7608 5.57456 34.9623 5.87403 34.9115C5.87605 34.9112 5.87806 34.9108 5.88007 34.9105C6.13072 36.2107 6.48307 37.4748 6.92852 38.694C6.9266 38.6947 6.92469 38.6954 6.92278 38.6962C6.63987 38.8068 6.50019 39.1258 6.61078 39.4087C8.29714 43.7224 11.1322 47.4594 14.7393 50.2443C14.9798 50.4299 15.3252 50.3855 15.5108 50.145C15.512 50.1434 15.5133 50.1418 15.5145 50.1402C18.4173 52.2805 21.8041 53.8022 25.4805 54.5109C25.4802 54.5129 25.4798 54.5149 25.4795 54.517C25.4286 54.8164 25.6302 55.1004 25.9297 55.1512C27.3168 55.3867 28.7421 55.5092 30.1955 55.5092C31.6489 55.5092 33.0742 55.3867 34.4613 55.1512C34.7608 55.1004 34.9623 54.8164 34.9115 54.517C34.9112 54.5149 34.9108 54.5129 34.9105 54.5109C36.2107 54.2603 37.4748 53.9079 38.694 53.4625C38.6947 53.4644 38.6954 53.4663 38.6962 53.4682C38.8068 53.7511 39.1258 53.8908 39.4087 53.7802C43.7224 52.0938 47.4594 49.2588 50.2443 45.6517C50.4299 45.4112 50.3855 45.0658 50.145 44.8802C50.1434 44.879 50.1418 44.8777 50.1402 44.8765C52.2805 41.9737 53.8022 38.5868 54.5109 34.9105C54.5129 34.9108 54.5149 34.9112 54.517 34.9115C54.8164 34.9623 55.1004 34.7608 55.1512 34.4613C55.3867 33.0742 55.5092 31.6489 55.5092 30.1955C55.5092 28.7421 55.3867 27.3168 55.1512 25.9297Z" stroke="#F5F2EE" stroke-width="1.1" stroke-linecap="round" stroke-linejoin="round" stroke-dasharray="50 30 80 72"/>
<circle cx="30" cy="30" r="22.5115" transform="rotate(30 30 30)" stroke="#F5F2EE" stroke-width="1.1" stroke-linecap="round" stroke-linejoin="round" stroke-dasharray="10 30 70 68"/>
<path d="M48.581 35.0317C48.6915 35.5671 48.6817 36.1203 48.5522 36.6514M45.7321 39.372C45.1968 39.4824 44.6436 39.4725 44.1126 39.343M41.392 36.5232C41.2815 35.9879 41.2914 35.4346 41.4208 34.9035M44.2407 32.1828C44.7761 32.0724 45.3294 32.0824 45.8605 32.2119" stroke="#F5F2EE" stroke-linecap="round" stroke-linejoin="round"/>
<path d="M41.6664 32.0202C41.5225 32.2384 41.4871 32.5063 41.5426 32.8158C41.6089 33.1848 41.8095 33.6007 42.0994 33.9922C42.6791 34.7754 43.615 35.4523 44.4476 35.555L44.5058 35.5623L44.5432 35.6069L47.6069 39.2834C47.9123 39.3559 48.1095 39.3108 48.212 39.2098C48.3153 39.1081 48.3629 38.9117 48.2864 38.6L41.6664 32.0202L41.6664 32.0202ZM47.5848 32.0565L45.8727 33.7584C45.6833 33.9466 45.6817 34.1537 45.7795 34.38L45.8199 34.4736L45.7459 34.5442L45.171 35.0893L45.6379 35.5535L46.1838 34.9804L46.2548 34.9059L46.349 34.9466C46.5883 35.0491 46.8152 35.0449 46.9911 34.8702L48.7031 33.1682L48.4807 32.9471L47.3673 34.0535L47.1592 33.8462L48.2721 32.7398L48.035 32.504L46.922 33.6104L46.7134 33.403L47.8264 32.2967L47.5848 32.0565ZM44.3652 35.8535L41.4396 38.6285C41.3674 38.9257 41.4136 39.1114 41.5111 39.2074C41.6086 39.3033 41.7971 39.3474 42.0925 39.2765L44.8258 36.4064L44.3652 35.8535Z" fill="#F5F2EE"/>
<path d="M18.4653 16.4451C16.7449 19.2604 14.7942 23.3094 14.0339 24.9821C14.3467 25.1906 14.729 25.069 14.8811 24.9821C16.8622 20.5507 18.7912 17.705 19.508 16.8361C19.9251 16.7319 20.9851 22.2233 21.463 24.9821C21.6716 25.1385 21.9409 25.0473 22.0495 24.9821C20.8505 18.1525 19.8556 15.4024 19.508 14.8811C19.2473 15.8716 18.7043 16.3365 18.4653 16.4451Z" fill="#F5F2EE"/>
<path d="M22.5057 29.8697C17.3966 24.7084 13.5995 27.806 12.3395 30C12.3395 27.7582 13.0781 26.3723 13.4474 25.9596C13.7081 25.8553 14.2077 25.9162 14.4249 25.9596C14.477 26.116 14.6204 26.3289 14.6856 26.4158C14.8941 26.2072 17.3792 26.3289 18.5956 26.4158C19.4819 26.7286 21.0937 27.6757 21.7889 28.1101V26.6764C22.0495 26.2594 22.2016 26.3289 22.245 26.4158C23.0792 28.7263 22.7664 29.6811 22.5057 29.8697Z" fill="#F5F2EE"/>
<path d="M15.4676 25.5686L18.1689 21.8802L20.8114 25.5686H18.5305C18.2698 25.0473 17.6181 25.3079 17.553 25.5686H15.4676Z" fill="#F5F2EE"/>
<path d="M18.8563 20.9417L15.4676 25.5686C16.282 25.5686 16.7386 25.5686 17.553 25.5686C17.6181 25.3079 18.2698 25.0473 18.5305 25.5686H20.8114L17.6833 21.2024M14.0339 24.9821C14.7942 23.3094 16.7449 19.2604 18.4653 16.4451C18.7043 16.3365 19.2473 15.8716 19.508 14.8811C19.8556 15.4024 20.8505 18.1525 22.0495 24.9821C21.9409 25.0473 21.6716 25.1385 21.463 24.9821C20.9851 22.2233 19.9251 16.7319 19.508 16.8361C18.7912 17.705 16.8622 20.5507 14.8811 24.9821C14.729 25.069 14.3467 25.1906 14.0339 24.9821ZM12.3395 30C13.5995 27.806 17.3966 24.7084 22.5057 29.8697C22.7664 29.6811 23.0792 28.7263 22.245 26.4158C22.2016 26.3289 22.0495 26.2594 21.7889 26.6764V28.1101C21.0937 27.6757 19.4819 26.7286 18.5956 26.4158C17.3792 26.3289 14.8941 26.2072 14.6856 26.4158C14.6204 26.3289 14.477 26.116 14.4249 25.9596C14.2077 25.9162 13.7081 25.8553 13.4474 25.9596C13.0781 26.3723 12.3395 27.7582 12.3395 30Z" stroke="#F5F2EE" stroke-width="0.3"/>
<path d="M26.2854 29.4135C26.0248 28.6836 26.1768 19.6383 26.2854 15.2069C26.0248 15.4155 25.9596 15.8152 25.9596 15.9889L25.1776 28.1101C25.4904 28.9443 26.0465 29.3266 26.2854 29.4135Z" fill="#F5F2EE"/>
<path d="M28.2405 28.6315C29.2614 27.6974 31.4337 25.7641 31.955 25.5034C32.3243 25.3296 33.102 25.1255 33.2584 25.6989C33.2584 26.1986 33.2975 27.3412 33.4539 27.9146C33.5625 27.9798 33.8319 28.071 34.0404 27.9146C34.8876 27.3498 37.0642 26.0508 38.9931 25.3731C39.2104 25.3514 39.6839 25.4383 39.8403 25.9596C39.9055 26.4158 40.0098 27.7973 39.9055 29.6742C39.8403 29.8045 39.6709 30.0652 39.5145 30.0652C39.4723 30.0652 39.4481 30.0683 39.4366 30.0734C39.4649 30.0957 39.4912 30.1148 39.5145 30.1303C39.4669 30.1145 39.4055 30.087 39.4366 30.0734C39.2276 29.9085 38.9087 29.5661 38.8628 29.1528C38.928 28.2622 39.0062 26.4809 38.7976 26.4809C38.7108 26.3506 38.3545 26.1942 37.6246 26.6113C36.6037 27.2847 34.3011 28.6966 34.2359 28.6966C34.0621 28.7835 33.6103 28.9704 33.1932 29.0225C33.0412 28.979 32.711 28.84 32.6067 28.6315C32.6936 27.9798 32.8283 26.6373 32.6719 26.4809C32.5198 26.3506 32.1245 26.1681 31.7595 26.4809C31.0644 26.9806 29.4787 28.1883 28.6966 29.0225C28.4794 29.0442 28.0841 28.9964 28.2405 28.6315Z" fill="#F5F2EE"/>
<path d="M31.3034 28.045C31.0427 28.045 30.2607 28.7401 29.8697 29.1528C29.609 29.0486 29.6307 28.8922 29.6742 28.827C30.7168 27.68 31.6944 27.1978 31.955 27.3933C31.955 27.7843 31.9985 28.7184 31.955 29.1528C31.7986 29.2571 31.6292 29.1963 31.564 29.1528C31.564 28.1101 31.4337 28.045 31.3034 28.045Z" fill="#F5F2EE"/>
<path d="M37.2988 27.9798C36.986 27.9798 36.1692 28.7618 35.7999 29.1528C35.5393 29.1007 35.561 28.8704 35.6044 28.7618C37.0642 27.3021 37.6463 27.3716 37.755 27.5888C37.9114 27.9537 37.907 28.827 37.8853 29.218C37.8332 29.3223 37.6463 29.2614 37.5595 29.218C37.6637 28.3838 37.4291 28.045 37.2988 27.9798Z" fill="#F5F2EE"/>
<path d="M41.5999 27.1978C43.2682 25.9987 44.8148 25.5686 45.3796 25.5034C45.6924 25.5556 46.0313 25.8727 46.1616 26.0248C46.1616 26.5461 45.7054 26.5461 45.5751 26.4809C45.5751 26.4809 44.8148 26.3723 44.5324 26.4809C42.447 27.1066 41.9257 28.0015 41.9257 28.3708C41.8736 28.7357 42.3895 28.8268 42.654 28.8266C42.8227 28.817 43.3215 28.6072 43.5549 28.5011C44.6497 27.9277 46.1833 27.4802 46.8133 27.3281C47.0739 27.276 47.9646 28.6966 48.3773 29.4135C48.3252 29.6742 48.008 29.9131 47.856 30C47.6996 30.0521 47.5301 29.8914 47.465 29.8045C46.8915 28.8661 46.4874 28.5011 46.2268 28.5011C46.1616 28.5011 44.8148 28.7835 44.2717 29.0877C43.229 29.6611 42.1864 29.7176 41.7954 29.6742C40.8569 29.4135 40.6658 28.7401 40.6875 28.436C41.0524 27.7061 41.4478 27.3064 41.5999 27.1978Z" fill="#F5F2EE"/>
<path d="M42.654 28.8266C42.8227 28.817 43.3215 28.6072 43.5549 28.5011C44.6497 27.9277 46.1833 27.4802 46.8133 27.3281C47.0739 27.276 47.9646 28.6966 48.3773 29.4135C48.3252 29.6742 48.008 29.9131 47.856 30C47.6996 30.0521 47.5301 29.8914 47.465 29.8045C46.8915 28.8661 46.4874 28.5011 46.2268 28.5011C46.1616 28.5011 44.8148 28.7835 44.2717 29.0877C43.229 29.6611 42.1864 29.7176 41.7954 29.6742C40.8569 29.4135 40.6658 28.7401 40.6875 28.436C41.0524 27.7061 41.4478 27.3064 41.5999 27.1978C43.2681 25.9987 44.8148 25.5686 45.3796 25.5034C45.6924 25.5556 46.0313 25.8727 46.1616 26.0248C46.1616 26.5461 45.7054 26.5461 45.5751 26.4809C45.5751 26.4809 44.8148 26.3723 44.5324 26.4809C42.447 27.1066 41.9257 28.0015 41.9257 28.3708C41.8736 28.7357 42.3895 28.8268 42.654 28.8266ZM42.654 28.8266C42.65 28.8269 42.6462 28.827 42.6425 28.827C42.4861 28.827 42.585 28.8268 42.654 28.8266ZM26.2854 15.2069C26.1768 19.6383 26.0248 28.6836 26.2854 29.4135C26.0465 29.3266 25.4904 28.9443 25.1776 28.1101L25.9596 15.9889C25.9596 15.8152 26.0248 15.4155 26.2854 15.2069ZM28.2405 28.6315C29.2614 27.6974 31.4337 25.7641 31.955 25.5034C32.3243 25.3296 33.102 25.1255 33.2584 25.6989C33.2584 26.1986 33.2975 27.3412 33.4539 27.9146C33.5625 27.9798 33.8319 28.071 34.0404 27.9146C34.8876 27.3498 37.0642 26.0508 38.9931 25.3731C39.2104 25.3514 39.6839 25.4383 39.8403 25.9596C39.9055 26.4158 40.0098 27.7973 39.9055 29.6742C39.8403 29.8045 39.6709 30.0652 39.5145 30.0652C39.3581 30.0652 39.4493 30.1086 39.5145 30.1303C39.319 30 38.9149 29.622 38.8628 29.1528C38.928 28.2622 39.0062 26.4809 38.7976 26.4809C38.7108 26.3506 38.3545 26.1942 37.6246 26.6113C36.6037 27.2847 34.3011 28.6966 34.2359 28.6966C34.0621 28.7835 33.6103 28.9704 33.1932 29.0225C33.0412 28.979 32.711 28.84 32.6067 28.6315C32.6936 27.9798 32.8283 26.6373 32.6719 26.4809C32.5198 26.3506 32.1245 26.1681 31.7595 26.4809C31.0644 26.9806 29.4787 28.1883 28.6966 29.0225C28.4794 29.0442 28.0841 28.9964 28.2405 28.6315ZM29.8697 29.1528C30.2607 28.7401 31.0427 28.045 31.3034 28.045C31.4337 28.045 31.564 28.1101 31.564 29.1528C31.6292 29.1963 31.7986 29.2571 31.955 29.1528C31.9985 28.7184 31.955 27.7843 31.955 27.3933C31.6944 27.1978 30.7168 27.68 29.6742 28.827C29.6307 28.8922 29.609 29.0486 29.8697 29.1528ZM35.7999 29.1528C36.1692 28.7618 36.986 27.9798 37.2988 27.9798C37.4291 28.045 37.6637 28.3838 37.5595 29.218C37.6463 29.2614 37.8332 29.3223 37.8853 29.218C37.907 28.827 37.9114 27.9537 37.755 27.5888C37.6463 27.3716 37.0642 27.3021 35.6044 28.7618C35.561 28.8704 35.5393 29.1007 35.7999 29.1528Z" stroke="#F5F2EE" stroke-width="0.3"/>
<path d="M13.585 38.6673H12.545C12.3204 38.6673 12.1718 38.631 12.0992 38.5583C12.0332 38.4857 12.0002 38.3338 12.0002 38.1027V31.9019C12.0002 31.783 12.0332 31.6872 12.0992 31.6146C12.1652 31.542 12.2511 31.5056 12.3568 31.5056H13.585V38.6673ZM13.9813 31.5056H15.2393C15.8666 31.5056 16.2826 31.6542 16.4873 31.9514C16.6987 32.2419 16.8043 32.8297 16.8043 33.7146C16.8043 34.3023 16.7383 34.7612 16.6062 35.0914C16.4807 35.4216 16.3123 35.6428 16.101 35.7551C15.8897 35.8608 15.6025 35.9136 15.2393 35.9136H13.9813V34.9726H14.7143C14.886 34.9726 14.9949 34.9494 15.0411 34.9032C15.094 34.857 15.1204 34.7844 15.1204 34.6853V32.7438C15.1204 32.6382 15.094 32.5622 15.0411 32.516C14.9949 32.4698 14.886 32.4467 14.7143 32.4467H13.9813V31.5056Z" fill="#F5F2EE"/>
<path d="M19.4081 31.5056V37.439C19.4081 37.5447 19.4214 37.6206 19.4478 37.6669C19.4808 37.7065 19.5567 37.7263 19.6756 37.7263H20.7454V38.6673H19.2893C18.8072 38.6673 18.4407 38.5848 18.1898 38.4197C17.9454 38.2546 17.8233 37.9673 17.8233 37.5579V32.0702C17.8233 31.8391 17.8563 31.6872 17.9223 31.6146C17.995 31.542 18.1435 31.5056 18.3681 31.5056H19.4081ZM21.0426 31.5056H22.0826C22.3072 31.5056 22.4524 31.542 22.5185 31.6146C22.5911 31.6872 22.6274 31.8391 22.6274 32.0702V37.439C22.6274 37.5447 22.6406 37.6206 22.6671 37.6669C22.7001 37.7065 22.776 37.7263 22.8949 37.7263H23.0732V38.6673H22.5086C22.0265 38.6673 21.66 38.5848 21.4091 38.4197C21.1647 38.2546 21.0426 37.9673 21.0426 37.5579V31.5056Z" fill="#F5F2EE"/>
<path d="M25.7154 38.6673H24.6753C24.4508 38.6673 24.3022 38.631 24.2296 38.5583C24.1635 38.4857 24.1305 38.3338 24.1305 38.1027V32.0702C24.1305 31.8391 24.1635 31.6872 24.2296 31.6146C24.3022 31.542 24.4508 31.5056 24.6753 31.5056H25.7154V38.6673ZM28.7762 37.2805V38.1225C28.7762 38.347 28.7399 38.4956 28.6672 38.5683C28.5946 38.6343 28.4427 38.6673 28.2116 38.6673H26.1116V37.2805H28.7762ZM28.1819 34.3584V34.9527C28.1819 35.1905 28.1588 35.3424 28.1125 35.4084C28.0663 35.4678 27.9342 35.4976 27.7163 35.4976H26.1116V34.3584H28.1819ZM28.6771 31.5056V32.3476C28.6771 32.5721 28.6408 32.7207 28.5682 32.7934C28.4955 32.8594 28.3437 32.8924 28.1125 32.8924H26.1116V31.5056H28.6771Z" fill="#F5F2EE"/>
<path d="M32.5314 32.4467H31.6102C31.5045 32.4467 31.4517 32.4731 31.4517 32.5259V38.6673H30.4116C30.1871 38.6673 30.0385 38.6343 29.9659 38.5683C29.8998 38.4956 29.8668 38.347 29.8668 38.1225V32.0702C29.8668 31.8391 29.8998 31.6872 29.9659 31.6146C30.0385 31.542 30.1871 31.5056 30.4116 31.5056H32.5314V32.4467ZM33.0861 35.557H34.0271C34.2979 35.557 34.4729 35.6197 34.5521 35.7452C34.6313 35.8641 34.671 36.0556 34.671 36.3197V37.7857C34.671 38.2216 34.5554 38.489 34.3243 38.5881C34.212 38.6409 34.07 38.6673 33.8983 38.6673H31.8479V37.7362H32.68C32.9507 37.7362 33.0861 37.6404 33.0861 37.4489V35.557ZM32.9573 31.5056H33.8983C34.1625 31.5056 34.3309 31.5651 34.4035 31.6839C34.4828 31.8028 34.5224 31.9976 34.5224 32.2684V34.1702C34.5224 34.5532 34.4531 34.8306 34.3144 35.0023C34.1823 35.174 33.9016 35.2598 33.4724 35.2598H31.8479V34.3188H32.5809C32.746 34.3188 32.8484 34.2792 32.888 34.1999C32.9342 34.1207 32.9573 33.9985 32.9573 33.8334V31.5056Z" fill="#F5F2EE"/>
<path d="M39.052 36.5079H40.4388C40.5114 36.5079 40.5477 36.5541 40.5477 36.6466V38.39C40.5477 38.5749 40.4553 38.6673 40.2704 38.6673H37.8732V37.7263H38.7944C38.9001 37.7263 38.9529 37.7164 38.9529 37.6966C38.9595 37.6702 38.9628 37.6404 38.9628 37.6074V36.6169C38.9628 36.564 38.9694 36.5343 38.9826 36.5277C38.9959 36.5145 39.019 36.5079 39.052 36.5079ZM37.5265 38.6673H36.4865C36.2619 38.6673 36.1134 38.631 36.0407 38.5583C35.9747 38.4857 35.9417 38.3338 35.9417 38.1027V32.0702C35.9417 31.8391 35.9747 31.6872 36.0407 31.6146C36.1134 31.542 36.2619 31.5056 36.4865 31.5056H37.5265V38.6673Z" fill="#F5F2EE"/>
</svg>
