<svg width="25" height="24" viewBox="0 0 25 24" fill="none" xmlns="http://www.w3.org/2000/svg">
<path d="M12.5 21C11.8 21 11.2083 20.7583 10.725 20.275C10.2417 19.7917 10 19.2 10 18.5C10 17.8 10.2417 17.2083 10.725 16.725C11.2083 16.2417 11.8 16 12.5 16C13.2 16 13.7917 16.2417 14.275 16.725C14.7583 17.2083 15 17.8 15 18.5C15 19.2 14.7583 19.7917 14.275 20.275C13.7917 20.7583 13.2 21 12.5 21ZM6.85 15.35L4.75 13.2C5.73333 12.2167 6.88767 11.4377 8.213 10.863C9.53833 10.2883 10.9673 10.0007 12.5 10C14.0327 9.99933 15.462 10.291 16.788 10.875C18.114 11.459 19.268 12.2507 20.25 13.25L18.15 15.35C17.4167 14.6167 16.5667 14.0417 15.6 13.625C14.6333 13.2083 13.6 13 12.5 13C11.4 13 10.3667 13.2083 9.4 13.625C8.43333 14.0417 7.58333 14.6167 6.85 15.35ZM2.6 11.1L0.5 9C2.03333 7.43333 3.825 6.20833 5.875 5.325C7.925 4.44167 10.1333 4 12.5 4C14.8667 4 17.075 4.44167 19.125 5.325C21.175 6.20833 22.9667 7.43333 24.5 9L22.4 11.1C21.1167 9.81667 19.6293 8.81267 17.938 8.088C16.2467 7.36333 14.434 7.00067 12.5 7C10.566 6.99933 8.75367 7.362 7.063 8.088C5.37233 8.814 3.88467 9.818 2.6 11.1Z" fill="black"/>
</svg>
